<?xml version="1.0" encoding="UTF-8"?>
<!DOCTYPE svg PUBLIC "-//W3C//DTD SVG 1.1//EN" "http://www.w3.org/Graphics/SVG/1.1/DTD/svg11.dtd">
<svg xmlns="http://www.w3.org/2000/svg" version="1.1" width="400px" height="400px" style="shape-rendering:geometricPrecision; text-rendering:geometricPrecision; image-rendering:optimizeQuality; fill-rule:evenodd; clip-rule:evenodd" xmlns:xlink="http://www.w3.org/1999/xlink">
<g><path style="opacity:1" fill="#fefefe" d="M -0.5,-0.5 C 132.833,-0.5 266.167,-0.5 399.5,-0.5C 399.5,132.833 399.5,266.167 399.5,399.5C 266.167,399.5 132.833,399.5 -0.5,399.5C -0.5,266.167 -0.5,132.833 -0.5,-0.5 Z"/></g>
<g><path style="opacity:1" fill="#9dcbec" d="M 166.5,348.5 C 177.398,354.78 188.398,360.78 199.5,366.5C 210.602,360.78 221.602,354.78 232.5,348.5C 245.034,341.404 257.367,334.07 269.5,326.5C 274.632,324.1 279.632,321.434 284.5,318.5C 297.202,311.152 309.869,303.818 322.5,296.5C 330.224,292.22 337.724,287.553 345,282.5C 345.667,227.167 345.667,171.833 345,116.5C 340.13,112.642 334.963,109.142 329.5,106C 287.67,82.2527 246.003,58.2527 204.5,34C 201.167,32 197.833,32 194.5,34C 148.997,60.586 103.33,86.9193 57.5,113C 56.3333,114.167 55.1667,115.333 54,116.5C 53.3333,171.833 53.3333,227.167 54,282.5C 61.5846,288.266 69.7513,292.933 78.5,296.5C 75.7013,304.226 72.7013,311.893 69.5,319.5C 59.7048,314.2 50.0382,308.7 40.5,303C 35.6588,298.487 32.4921,292.987 31,286.5C 30.3333,227.833 30.3333,169.167 31,110.5C 33.1269,104.416 36.6269,99.2492 41.5,95C 91.5963,65.9007 141.93,37.2341 192.5,9C 201.536,7.23873 209.869,8.9054 217.5,14C 263.003,40.586 308.67,66.9193 354.5,93C 362.407,97.6435 367.24,104.477 369,113.5C 369.667,170.5 369.667,227.5 369,284.5C 367.693,291.952 364.193,298.119 358.5,303C 310.33,331.253 261.997,359.253 213.5,387C 204.984,391.21 196.317,391.543 187.5,388C 178,382.5 168.5,377 159,371.5C 160.38,363.524 162.88,355.858 166.5,348.5 Z"/></g>
<g><path style="opacity:1" fill="#213147" d="M 322.5,296.5 C 320.883,294.879 319.716,292.879 319,290.5C 301,241.167 283,191.833 265,142.5C 263.274,141.424 261.441,141.257 259.5,142C 252.672,159.65 246.339,177.483 240.5,195.5C 254.773,236.653 269.44,277.653 284.5,318.5C 279.632,321.434 274.632,324.1 269.5,326.5C 258.047,292.971 245.714,259.804 232.5,227C 231.056,226.219 229.723,226.386 228.5,227.5C 221.467,245.101 215.133,262.934 209.5,281C 217.272,303.483 224.939,325.983 232.5,348.5C 221.602,354.78 210.602,360.78 199.5,366.5C 188.398,360.78 177.398,354.78 166.5,348.5C 195.031,269.409 223.864,190.409 253,111.5C 253.711,109.633 253.211,108.133 251.5,107C 238.167,106.333 224.833,106.333 211.5,107C 210.667,107.833 209.833,108.667 209,109.5C 179.667,189.5 150.333,269.5 121,349.5C 116.402,347.23 112.069,344.563 108,341.5C 107.333,340.167 107.333,338.833 108,337.5C 135.898,261.806 163.398,185.973 190.5,110C 190.415,108.893 190.081,107.893 189.5,107C 176.167,106.333 162.833,106.333 149.5,107C 148.333,108.167 147.167,109.333 146,110.5C 123.591,172.562 101.091,234.562 78.5,296.5C 69.7513,292.933 61.5846,288.266 54,282.5C 53.3333,227.167 53.3333,171.833 54,116.5C 55.1667,115.333 56.3333,114.167 57.5,113C 103.33,86.9193 148.997,60.586 194.5,34C 197.833,32 201.167,32 204.5,34C 246.003,58.2527 287.67,82.2527 329.5,106C 334.963,109.142 340.13,112.642 345,116.5C 345.667,171.833 345.667,227.167 345,282.5C 337.724,287.553 330.224,292.22 322.5,296.5 Z"/></g>
<g><path style="opacity:1" fill="#12a8fd" d="M 322.5,296.5 C 309.869,303.818 297.202,311.152 284.5,318.5C 269.44,277.653 254.773,236.653 240.5,195.5C 246.339,177.483 252.672,159.65 259.5,142C 261.441,141.257 263.274,141.424 265,142.5C 283,191.833 301,241.167 319,290.5C 319.716,292.879 320.883,294.879 322.5,296.5 Z"/></g>
<g><path style="opacity:1" fill="#12a8fc" d="M 269.5,326.5 C 257.367,334.07 245.034,341.404 232.5,348.5C 224.939,325.983 217.272,303.483 209.5,281C 215.133,262.934 221.467,245.101 228.5,227.5C 229.723,226.386 231.056,226.219 232.5,227C 245.714,259.804 258.047,292.971 269.5,326.5 Z"/></g>
</svg>
