<svg width="209" height="30" viewBox="0 0 209 30" fill="none" xmlns="http://www.w3.org/2000/svg">
  <path fill-rule="evenodd" clip-rule="evenodd" d="M30.2412 0L47.5152 29.9371H38.5387L23.7576 4.31893L8.97554 29.9371H0L17.273 0H21.2657H26.2495H30.2412ZM40.2379 4.17233e-05L57.5109 29.9372H61.5036H66.4864H70.4791L87.7521 4.17233e-05H78.7766L63.9955 25.6182L49.2134 4.17233e-05H40.2379ZM110.718 4.17233e-05L127.992 29.9372H119.015L104.234 4.31897L89.4522 29.9372H80.4767L97.7497 4.17233e-05H101.742H106.726H110.718ZM133.24 4.17233e-05L126.98 10.8503L137.994 29.9372H146.969L134.187 7.7837H163.594L168.085 4.17233e-05H133.24ZM208.292 29.9372L191.018 4.17233e-05H187.027H182.043H178.051L160.777 29.9372H169.753L184.535 4.31897L199.317 29.9372H208.292Z" fill="black"/>
</svg>
