<?xml version="1.0" encoding="UTF-8"?>
<!DOCTYPE svg PUBLIC "-//W3C//DTD SVG 1.1//EN" "http://www.w3.org/Graphics/SVG/1.1/DTD/svg11.dtd">
<svg xmlns="http://www.w3.org/2000/svg" version="1.1" width="512px" height="512px" style="shape-rendering:geometricPrecision; text-rendering:geometricPrecision; image-rendering:optimizeQuality; fill-rule:evenodd; clip-rule:evenodd" xmlns:xlink="http://www.w3.org/1999/xlink">
<g><path style="opacity:0.997" fill="#f0b90c" d="M 232.5,-0.5 C 247.833,-0.5 263.167,-0.5 278.5,-0.5C 368.144,10.3879 435.644,54.7213 481,132.5C 497.695,163.971 507.861,197.304 511.5,232.5C 511.5,247.833 511.5,263.167 511.5,278.5C 500.612,368.144 456.279,435.644 378.5,481C 347.029,497.695 313.696,507.861 278.5,511.5C 263.167,511.5 247.833,511.5 232.5,511.5C 142.856,500.612 75.3562,456.279 30,378.5C 13.3053,347.029 3.1386,313.696 -0.5,278.5C -0.5,263.167 -0.5,247.833 -0.5,232.5C 10.3875,142.857 54.7208,75.3573 132.5,30C 163.971,13.3053 197.304,3.1386 232.5,-0.5 Z"/></g>
<g><path style="opacity:1" fill="#fefefd" d="M 254.5,80.5 C 285.276,98.0576 315.942,115.891 346.5,134C 335.399,140.633 324.233,147.133 313,153.5C 293.893,142.364 274.727,131.364 255.5,120.5C 236.707,131.065 218.04,141.898 199.5,153C 196.983,153.257 194.65,152.59 192.5,151C 183.167,145.333 173.833,139.667 164.5,134C 194.728,116.392 224.728,98.559 254.5,80.5 Z"/></g>
<g><path style="opacity:1" fill="#fefefb" d="M 138.5,148.5 C 150.488,154.298 162.155,160.798 173.5,168C 162.584,174.374 151.75,180.874 141,187.5C 140.833,200.513 140.333,213.513 139.5,226.5C 128.42,220.545 117.587,214.212 107,207.5C 106.167,194.154 106.334,180.821 107.5,167.5C 118.137,161.502 128.471,155.168 138.5,148.5 Z"/></g>
<g><path style="opacity:1" fill="#fefefc" d="M 254.5,148.5 C 266.268,154.218 277.601,160.718 288.5,168C 277.83,175.004 266.83,181.504 255.5,187.5C 244.17,181.504 233.17,175.004 222.5,168C 233.075,161.24 243.741,154.74 254.5,148.5 Z"/></g>
<g><path style="opacity:1" fill="#fefefc" d="M 369.5,148.5 C 381.059,154.283 392.392,160.616 403.5,167.5C 404.666,180.821 404.833,194.154 404,207.5C 393.413,214.212 382.58,220.545 371.5,226.5C 370.667,213.513 370.167,200.513 370,187.5C 359.25,180.874 348.416,174.374 337.5,168C 348.397,161.726 359.064,155.226 369.5,148.5 Z"/></g>
<g><path style="opacity:1" fill="#fffefe" d="M 196.5,182.5 C 198.308,182.491 199.975,182.991 201.5,184C 219.374,194.768 237.374,205.268 255.5,215.5C 274.727,204.636 293.893,193.636 313,182.5C 323.99,188.817 334.99,195.15 346,201.5C 346.667,214.833 346.667,228.167 346,241.5C 327.583,252.626 309.083,263.626 290.5,274.5C 289.833,297.5 289.167,320.5 288.5,343.5C 277.663,350.086 266.663,356.419 255.5,362.5C 244.749,356.041 233.915,349.707 223,343.5C 222.667,320.833 222.333,298.167 222,275.5C 203,264.167 184,252.833 165,241.5C 164.333,228.167 164.333,214.833 165,201.5C 175.813,195.518 186.313,189.185 196.5,182.5 Z"/></g>
<g><path style="opacity:1" fill="#fefefc" d="M 197.5,357.5 C 197.829,370.344 197.495,383.011 196.5,395.5C 166.697,378.431 137.03,361.097 107.5,343.5C 106.167,307.833 106.167,272.167 107.5,236.5C 118.58,242.455 129.413,248.788 140,255.5C 140.333,278.167 140.667,300.833 141,323.5C 159.98,334.733 178.813,346.067 197.5,357.5 Z"/></g>
<g><path style="opacity:1" fill="#fefefc" d="M 314.5,395.5 C 313.505,383.011 313.171,370.344 313.5,357.5C 332.187,346.067 351.02,334.733 370,323.5C 370.333,300.833 370.667,278.167 371,255.5C 382,248.833 393,242.167 404,235.5C 404.833,271.505 404.667,307.505 403.5,343.5C 373.97,361.097 344.303,378.431 314.5,395.5 Z"/></g>
<g><path style="opacity:1" fill="#fefefd" d="M 164.5,269.5 C 175.139,275.822 185.806,282.155 196.5,288.5C 197.666,301.821 197.833,315.154 197,328.5C 186.498,321.915 175.832,315.581 165,309.5C 164.5,296.171 164.333,282.837 164.5,269.5 Z"/></g>
<g><path style="opacity:1" fill="#fefefd" d="M 344.5,270.5 C 345.83,276.631 346.497,283.131 346.5,290C 346.333,296.5 346.167,303 346,309.5C 335.168,315.581 324.502,321.915 314,328.5C 313.167,315.154 313.334,301.821 314.5,288.5C 324.802,282.836 334.802,276.836 344.5,270.5 Z"/></g>
<g><path style="opacity:1" fill="#f6d56d" d="M 197.5,357.5 C 198.825,370.339 198.825,383.339 197.5,396.5C 196.893,396.376 196.56,396.043 196.5,395.5C 197.495,383.011 197.829,370.344 197.5,357.5 Z"/></g>
<g><path style="opacity:1" fill="#f6d469" d="M 313.5,357.5 C 313.171,370.344 313.505,383.011 314.5,395.5C 314.44,396.043 314.107,396.376 313.5,396.5C 312.175,383.339 312.175,370.339 313.5,357.5 Z"/></g>
<g><path style="opacity:1" fill="#f9e198" d="M 223.5,372.5 C 222.505,384.989 222.171,397.656 222.5,410.5C 221.175,397.661 221.175,384.661 222.5,371.5C 223.107,371.624 223.44,371.957 223.5,372.5 Z"/></g>
<g><path style="opacity:1" fill="#f9e198" d="M 287.5,372.5 C 287.56,371.957 287.893,371.624 288.5,371.5C 289.825,384.661 289.825,397.661 288.5,410.5C 288.829,397.656 288.495,384.989 287.5,372.5 Z"/></g>
<g><path style="opacity:1" fill="#fefefd" d="M 223.5,372.5 C 234.177,378.504 244.843,384.504 255.5,390.5C 266.157,384.504 276.823,378.504 287.5,372.5C 288.495,384.989 288.829,397.656 288.5,410.5C 277.73,417.392 266.73,424.059 255.5,430.5C 244.27,424.059 233.27,417.392 222.5,410.5C 222.171,397.656 222.505,384.989 223.5,372.5 Z"/></g>
</svg>
