<svg width="260" height="279" viewBox="0 0 260 279" fill="none" xmlns="http://www.w3.org/2000/svg">
<rect width="260" height="279" rx="16" fill="#060606"/>
<path d="M150.432 133.845H78.3408C68.0718 133.845 59.7471 142.099 59.7471 152.281C59.7471 162.464 68.0718 170.718 78.3408 170.718H150.432V192.281H78.3408L78.08 192.28C55.9204 192.141 38 174.286 38 152.281C38 130.276 55.9204 112.421 78.08 112.282L78.3408 112.281L150.432 112.281V133.845Z" fill="white"/>
<path d="M106.098 105.563H177.912C188.142 105.563 196.434 113.818 196.434 124C196.434 134.182 188.142 142.437 177.912 142.437L106.098 142.437V164H177.912L178.172 163.999C200.246 163.86 218.098 146.005 218.098 124C218.098 101.995 200.246 84.1399 178.172 84.0008L177.912 84L106.098 84V105.563Z" fill="white"/>
</svg>
