<svg xmlns="http://www.w3.org/2000/svg" width="500" height="500" viewBox="0 0 500 500" version="1.1"><path d="M 242.500 88.699 C 233.708 89.867, 228.603 92.510, 191 115.358 C 183.575 119.869, 163.775 131.840, 147 141.959 C 105.914 166.742, 105.548 166.998, 103.506 172.345 C 101.894 176.567, 101.907 176.898, 103.856 180.718 C 104.972 182.905, 106.923 185.372, 108.192 186.200 C 114.360 190.223, 228.428 249.968, 234.315 252.259 C 241.227 254.949, 256.113 255.174, 264.195 252.711 C 267.827 251.605, 285.401 241.611, 312.695 225.131 C 336.238 210.917, 363.150 194.671, 372.500 189.030 C 381.850 183.388, 390.976 177.340, 392.780 175.590 C 398.454 170.083, 398.111 161.352, 392.051 157.037 C 389.682 155.349, 350.086 134.221, 309.500 112.987 C 301.800 108.958, 289.650 102.557, 282.500 98.762 C 265.029 89.489, 255.183 87.012, 242.500 88.699 M 341.500 232.856 C 269.965 276.227, 275.084 273.437, 263.114 275.572 C 253.434 277.299, 246.511 277.289, 236.662 275.533 C 228.437 274.067, 218.736 269.531, 180.114 249.090 C 163.571 240.335, 141.759 228.817, 137 226.322 C 135.625 225.602, 133.747 225.010, 132.827 225.006 C 130.987 224.999, 110.762 237.037, 107.377 240.155 C 106.210 241.230, 104.467 243.855, 103.505 245.988 C 101.809 249.750, 101.820 249.995, 103.851 254.183 C 105.003 256.557, 106.745 258.994, 107.722 259.598 C 110.064 261.043, 121.741 267.304, 136 274.758 C 160.189 287.404, 189.318 302.669, 210 313.537 C 221.825 319.751, 233.944 325.547, 236.932 326.417 C 249.599 330.109, 264.825 327.638, 277.677 319.807 C 286.755 314.275, 335.085 285.015, 357 271.783 C 390.263 251.699, 392.509 250.223, 394.750 246.970 C 398.051 242.178, 397.759 236.934, 393.948 232.594 C 391.627 229.951, 375.020 220.160, 368 217.296 C 367.725 217.184, 355.800 224.186, 341.500 232.856 M 343 305.441 C 266.984 351.440, 269.915 350.031, 250 350.165 C 240.197 350.231, 237.394 349.868, 231 347.706 C 226.875 346.311, 204.222 335.007, 180.659 322.585 C 157.096 310.163, 137.437 300, 136.972 300 C 135.342 300, 110.468 315.361, 107.269 318.344 C 101.092 324.101, 101.046 331.097, 107.146 336.713 C 111.253 340.494, 232.848 403.802, 238.212 404.952 C 249.336 407.338, 263.360 405.587, 272.358 400.689 C 277.397 397.945, 319.118 372.858, 376.500 338.066 C 393.937 327.493, 397 324.471, 397 317.837 C 397 312.126, 392.718 308.287, 377.165 300.057 C 369.831 296.176, 363.756 293.008, 363.665 293.018 C 363.574 293.028, 354.275 298.618, 343 305.441" stroke="none" fill="#d4f9a5" fill-rule="evenodd"/><path d="M 214.500 1.543 C 189.960 4.779, 166.781 11.923, 141.500 24.044 C 108.353 39.936, 80.316 61.761, 56.766 90 C 36.729 114.026, 19.208 146.344, 10.101 176.075 C 2.582 200.619, 0 219.517, 0 250 C -0 280.483, 2.582 299.381, 10.101 323.925 C 17.329 347.520, 31.705 376.363, 46.275 396.500 C 61.281 417.239, 82.729 438.686, 103.500 453.722 C 123.616 468.285, 152.474 482.670, 176.075 489.899 C 200.619 497.418, 219.517 500, 250 500 C 280.483 500, 299.381 497.418, 323.925 489.899 C 347.526 482.670, 376.384 468.285, 396.500 453.722 C 422.891 434.617, 447.041 408.606, 464.017 381 C 469.912 371.413, 481.337 348.053, 485.291 337.500 C 491.343 321.351, 497.427 296.744, 498.588 283.722 C 498.969 279.444, 499.668 275.705, 500.140 275.413 C 500.613 275.121, 501 263.182, 501 248.882 C 501 234.524, 500.613 223.121, 500.136 223.416 C 499.660 223.710, 498.961 220.474, 498.583 216.225 C 497.427 203.254, 491.333 178.622, 485.291 162.500 C 481.337 151.947, 469.912 128.587, 464.017 119 C 443.557 85.728, 414.272 56.443, 381 35.983 C 371.363 30.057, 347.974 18.626, 337.500 14.723 C 320.838 8.514, 300.908 3.563, 284.038 1.441 C 269.646 -0.369, 228.545 -0.308, 214.500 1.543 M 242.500 88.699 C 233.708 89.867, 228.603 92.510, 191 115.358 C 183.575 119.869, 163.775 131.840, 147 141.959 C 105.914 166.742, 105.548 166.998, 103.506 172.345 C 101.894 176.567, 101.907 176.898, 103.856 180.718 C 104.972 182.905, 106.923 185.372, 108.192 186.200 C 114.360 190.223, 228.428 249.968, 234.315 252.259 C 241.227 254.949, 256.113 255.174, 264.195 252.711 C 267.827 251.605, 285.401 241.611, 312.695 225.131 C 336.238 210.917, 363.150 194.671, 372.500 189.030 C 381.850 183.388, 390.976 177.340, 392.780 175.590 C 398.454 170.083, 398.111 161.352, 392.051 157.037 C 389.682 155.349, 350.086 134.221, 309.500 112.987 C 301.800 108.958, 289.650 102.557, 282.500 98.762 C 265.029 89.489, 255.183 87.012, 242.500 88.699 M 341.500 232.856 C 269.965 276.227, 275.084 273.437, 263.114 275.572 C 253.434 277.299, 246.511 277.289, 236.662 275.533 C 228.437 274.067, 218.736 269.531, 180.114 249.090 C 163.571 240.335, 141.759 228.817, 137 226.322 C 135.625 225.602, 133.747 225.010, 132.827 225.006 C 130.987 224.999, 110.762 237.037, 107.377 240.155 C 106.210 241.230, 104.467 243.855, 103.505 245.988 C 101.809 249.750, 101.820 249.995, 103.851 254.183 C 105.003 256.557, 106.745 258.994, 107.722 259.598 C 110.064 261.043, 121.741 267.304, 136 274.758 C 160.189 287.404, 189.318 302.669, 210 313.537 C 221.825 319.751, 233.944 325.547, 236.932 326.417 C 249.599 330.109, 264.825 327.638, 277.677 319.807 C 286.755 314.275, 335.085 285.015, 357 271.783 C 390.263 251.699, 392.509 250.223, 394.750 246.970 C 398.051 242.178, 397.759 236.934, 393.948 232.594 C 391.627 229.951, 375.020 220.160, 368 217.296 C 367.725 217.184, 355.800 224.186, 341.500 232.856 M 0.437 250 C 0.437 264.575, 0.577 270.538, 0.747 263.250 C 0.918 255.963, 0.918 244.037, 0.747 236.750 C 0.577 229.463, 0.437 235.425, 0.437 250 M 343 305.441 C 266.984 351.440, 269.915 350.031, 250 350.165 C 240.197 350.231, 237.394 349.868, 231 347.706 C 226.875 346.311, 204.222 335.007, 180.659 322.585 C 157.096 310.163, 137.437 300, 136.972 300 C 135.342 300, 110.468 315.361, 107.269 318.344 C 101.092 324.101, 101.046 331.097, 107.146 336.713 C 111.253 340.494, 232.848 403.802, 238.212 404.952 C 249.336 407.338, 263.360 405.587, 272.358 400.689 C 277.397 397.945, 319.118 372.858, 376.500 338.066 C 393.937 327.493, 397 324.471, 397 317.837 C 397 312.126, 392.718 308.287, 377.165 300.057 C 369.831 296.176, 363.756 293.008, 363.665 293.018 C 363.574 293.028, 354.275 298.618, 343 305.441" stroke="none" fill="#1b212e" fill-rule="evenodd"/></svg>