<svg width="344" height="65" viewBox="0 0 344 65" fill="none" xmlns="http://www.w3.org/2000/svg">
<path d="M89.2533 17.5586H32.6015C24.5317 17.5586 17.9899 24.0505 17.9899 32.0586C17.9899 40.0667 24.5317 46.5585 32.6015 46.5585H89.2533V63.5176H32.6015L32.3965 63.5169C14.9828 63.4075 0.900391 49.365 0.900391 32.0586C0.900391 14.7521 14.9828 0.709673 32.3965 0.600272L32.6015 0.599609H89.2533V17.5586Z" fill="#060606"/>
<path d="M129.482 64.3991C123.409 64.3991 117.929 63.113 113.042 60.5409C108.228 57.9688 104.414 54.2943 101.6 49.5176C98.8602 44.7408 97.4902 39.1556 97.4902 32.762C97.4902 26.442 98.8973 20.8936 101.711 16.1168C104.525 11.2665 108.376 7.55529 113.264 4.98318C118.151 2.41106 123.632 1.125 129.704 1.125C135.776 1.125 141.257 2.41106 146.144 4.98318C151.032 7.55529 154.883 11.2665 157.697 16.1168C160.511 20.8936 161.918 26.442 161.918 32.762C161.918 39.0821 160.474 44.6673 157.586 49.5176C154.771 54.2943 150.884 57.9688 145.922 60.5409C141.034 63.113 135.554 64.3991 129.482 64.3991ZM129.482 48.0845C133.111 48.0845 136.184 46.7617 138.702 44.1161C141.294 41.4705 142.59 37.6858 142.59 32.762C142.59 27.8383 141.331 24.0536 138.813 21.408C136.369 18.7624 133.333 17.4396 129.704 17.4396C126.001 17.4396 122.928 18.7624 120.484 21.408C118.04 23.9801 116.818 27.7648 116.818 32.762C116.818 37.6858 118.003 41.4705 120.373 44.1161C122.817 46.7617 125.853 48.0845 129.482 48.0845Z" fill="#060606"/>
<path d="M190.99 12.2586C193.212 8.8781 195.989 6.23249 199.321 4.32178C202.654 2.33757 206.356 1.34547 210.429 1.34547V21.2977H205.208C200.469 21.2977 196.914 22.3266 194.545 24.3843C192.175 26.3685 190.99 29.896 190.99 34.9667V63.5172H171.995V2.00687H190.99V12.2586Z" fill="#060606"/>
<path d="M244.724 64.3991C239.318 64.3991 234.505 63.4805 230.284 61.6432C226.062 59.806 222.73 57.3074 220.286 54.1474C217.842 50.9138 216.472 47.3129 216.176 43.3445H234.949C235.171 45.4757 236.171 47.2026 237.948 48.5254C239.725 49.8483 241.91 50.5096 244.502 50.5096C246.872 50.5096 248.686 50.0687 249.945 49.1868C251.278 48.2315 251.944 47.0189 251.944 45.5491C251.944 43.7854 251.019 42.4993 249.167 41.691C247.316 40.8091 244.317 39.8537 240.17 38.8249C235.727 37.796 232.024 36.7304 229.062 35.6281C226.099 34.4523 223.545 32.6518 221.397 30.2267C219.249 27.728 218.176 24.3843 218.176 20.1954C218.176 16.6679 219.138 13.4712 221.064 10.6051C223.063 7.66553 225.951 5.35062 229.728 3.66037C233.579 1.97012 238.133 1.125 243.391 1.125C251.167 1.125 257.276 3.03572 261.72 6.85715C266.237 10.6786 268.829 15.7493 269.495 22.0694H251.944C251.648 19.9382 250.686 18.248 249.056 16.9986C247.501 15.7493 245.428 15.1247 242.836 15.1247C240.614 15.1247 238.911 15.5656 237.726 16.4475C236.541 17.2559 235.949 18.3949 235.949 19.8647C235.949 21.6285 236.874 22.9513 238.726 23.8331C240.651 24.715 243.613 25.5969 247.612 26.4787C252.204 27.6546 255.943 28.8304 258.832 30.0062C261.72 31.1085 264.238 32.9458 266.385 35.5179C268.607 38.0165 269.755 41.397 269.829 45.6594C269.829 49.2603 268.792 52.4939 266.718 55.3599C264.719 58.1525 261.794 60.3572 257.943 61.9739C254.166 63.5907 249.76 64.3991 244.724 64.3991Z" fill="#060606"/>
<path d="M277.673 32.6518C277.673 26.3317 278.858 20.7833 281.228 16.0065C283.671 11.2297 286.967 7.55529 291.114 4.98318C295.261 2.41106 299.889 1.125 304.999 1.125C309.368 1.125 313.182 2.00687 316.441 3.7706C319.773 5.53435 322.328 7.84925 324.105 10.7153V2.00687H343.1V63.5172H324.105V54.8088C322.254 57.6748 319.662 59.9897 316.329 61.7535C313.071 63.5172 309.257 64.3991 304.888 64.3991C299.852 64.3991 295.261 63.113 291.114 60.5409C286.967 57.8953 283.671 54.1841 281.228 49.4073C278.858 44.557 277.673 38.9719 277.673 32.6518ZM324.105 32.762C324.105 28.0587 322.772 24.3475 320.106 21.6284C317.514 18.9094 314.33 17.5498 310.553 17.5498C306.776 17.5498 303.555 18.9094 300.889 21.6284C298.297 24.2741 297.001 27.9485 297.001 32.6518C297.001 37.3551 298.297 41.1031 300.889 43.8956C303.555 46.6147 306.776 47.9743 310.553 47.9743C314.33 47.9743 317.514 46.6147 320.106 43.8956C322.772 41.1765 324.105 37.4653 324.105 32.762Z" fill="#060606"/>
</svg>
