<svg width="29" height="28" viewBox="0 0 29 28" fill="none" xmlns="http://www.w3.org/2000/svg">
<g clip-path="url(#clip0_3751_88116)">
<path d="M0.5 12.7175L0.5 22.3998C0.5 25.4923 3.00667 28 6.10045 28L8.04524 28L8.04524 17.0724L0.5 12.7175Z" fill="black"/>
<path d="M0.5 7.58392L0.5 9.34173L11.5828 15.74L11.5828 28L13.1136 28L13.1136 14.8571L0.5 7.58392Z" fill="black"/>
<path d="M1.44362 2.48822C1.15809 2.91363 0.931045 3.38031 0.770508 3.87796L16.6511 13.0351L16.6579 13.0385L16.6579 17.0162L16.6511 17.0128L16.6511 28L22.8994 28C25.5219 28 27.7224 26.1974 28.3313 23.7643L18.1876 17.9003L18.1876 13.9226L28.4998 19.8829L28.4998 18.109L1.44362 2.48822Z" fill="black"/>
<path d="M28.4996 5.60022C28.4996 2.50772 25.9918 -1.03149e-07 22.8992 -8.81283e-08L6.09898 -6.53277e-09C5.63457 -4.27721e-09 5.18506 0.0573324 4.75391 0.163971L28.4996 13.8733L28.4996 5.60022Z" fill="black"/>
</g>
<defs>
<clipPath id="clip0_3751_88116">
<rect width="28" height="28" fill="white" transform="translate(0.5)"/>
</clipPath>
</defs>
</svg>
