<svg width="65" height="13" viewBox="0 0 65 13" fill="none" xmlns="http://www.w3.org/2000/svg">
<path d="M17.2336 9.37224V6.04035H16.0037V4.02136H17.2664L17.3974 1.92017H19.7096V4.02136H22.9893V6.04035H19.7096V9.2905C19.7096 10.1277 19.9883 10.505 20.6282 10.505C21.2681 10.505 21.4152 10.0455 21.4152 9.86498H23.1863V10.9812C22.8422 11.8512 21.9892 12.5568 20.4317 12.5568C18.3985 12.5568 17.2341 11.3584 17.2341 9.3727L17.2336 9.37224Z" fill="#c8c8c8"/>
<path d="M29.9253 7.53431L28.515 12.3107H26.2849L23.8088 5.17081V4.02185H26.039L27.5642 8.96266L29.0566 4.02185H31.0898L32.6311 8.94603L34.107 4.02185H36.2061V5.1214L33.6645 12.3107H31.4344L29.9258 7.53431H29.9253Z" fill="#c8c8c8"/>
<path d="M36.9927 8.19054C36.9927 5.76147 38.5668 3.77527 41.3547 3.77527C44.1426 3.77527 45.3721 5.46592 45.3721 7.68164C45.3721 8.25612 45.2572 8.73224 45.2572 8.73224H39.4853C39.633 9.84841 40.289 10.5707 41.5023 10.5707C42.9782 10.5707 43.2734 9.81562 43.2734 9.81562H45.2083V10.9152C45.2083 10.9152 44.4046 12.5564 41.4534 12.5564C38.5022 12.5564 36.9931 10.6524 36.9931 8.19008L36.9927 8.19054ZM42.9943 7.23831C42.9943 6.45048 42.4532 5.74485 41.3381 5.74485C40.223 5.74485 39.7312 6.36874 39.5342 7.23831H42.9943Z" fill="#c8c8c8"/>
<path d="M46.5527 8.19054C46.5527 5.76147 48.1268 3.77527 50.9148 3.77527C53.7027 3.77527 54.9321 5.46592 54.9321 7.68164C54.9321 8.25612 54.8173 8.73224 54.8173 8.73224H49.0454C49.193 9.84841 49.849 10.5707 51.0624 10.5707C52.5382 10.5707 52.8335 9.81562 52.8335 9.81562H54.7684V10.9152C54.7684 10.9152 53.9647 12.5564 51.0135 12.5564C48.0623 12.5564 46.5532 10.6524 46.5532 8.19008L46.5527 8.19054ZM52.5544 7.23831C52.5544 6.45048 52.0132 5.74485 50.8981 5.74485C49.7831 5.74485 49.2913 6.36874 49.0943 7.23831H52.5544Z" fill="#c8c8c8"/>
<path d="M56.1289 8.17433C56.1289 5.69585 57.5881 3.77522 59.8676 3.77522C61.0648 3.77522 61.9502 4.28412 62.5407 5.13753V0H65.0001V12.3107H62.7045L62.5568 11.1289C62.0157 11.999 61.0316 12.5568 59.8183 12.5568C57.4899 12.5568 56.1289 10.5872 56.1289 8.17433ZM62.5407 8.15771C62.5407 6.94317 61.7536 6.00756 60.573 6.00756C59.2942 6.00756 58.6054 6.9598 58.6054 8.17433C58.6054 9.38887 59.2942 10.3245 60.573 10.3245C61.7536 10.3245 62.5407 9.38887 62.5407 8.15771Z" fill="#c8c8c8"/>
<path d="M0 5.66089V10.0298C0 11.4253 1.12839 12.5568 2.52106 12.5568H3.39652V7.62599L0 5.66089Z" fill="#c8c8c8"/>
<path d="M0 3.39648V4.18514L4.97384 7.05628V12.5568H5.66086V6.65964L0 3.39648Z" fill="#c8c8c8"/>
<path d="M0.405092 1.1322C0.276855 1.3227 0.174884 1.53168 0.102783 1.75452L7.23511 5.85559L7.2382 5.85713V7.63835L7.23511 7.63681V12.5568H10.0414C11.2192 12.5568 12.2075 11.7497 12.481 10.6601L7.92522 8.03423V6.25301L12.5567 8.92201V8.12768L0.405092 1.1322Z" fill="#c8c8c8"/>
<path d="M12.5568 2.5344C12.5568 1.13488 11.4372 0 10.0565 0H2.55607C2.34874 0 2.14806 0.025946 1.95557 0.0742055L12.5568 6.27841V2.5344Z" fill="#c8c8c8"/>
</svg>
